<svg width="471" height="244" viewBox="0 0 471 244" fill="none" xmlns="http://www.w3.org/2000/svg">
<path d="M227.659 70.1321C228.153 69.5705 228.676 68.9895 229.228 68.3891C229.78 67.7791 230.351 67.1788 230.942 66.5881C231.542 65.9877 232.162 65.4019 232.801 64.8306C233.45 64.2593 234.118 63.7316 234.805 63.2474C234.476 63.2087 234.147 63.1651 233.818 63.1167C233.489 63.0683 233.121 63.0247 232.714 62.986C232.307 62.9376 231.842 62.9037 231.32 62.8843C230.797 62.8553 230.177 62.8407 229.46 62.8407C228.231 62.8407 227.093 62.9811 226.047 63.2619C225.001 63.5428 224.096 63.8962 223.331 64.3222C222.566 64.7483 221.966 65.2131 221.53 65.7166C221.104 66.2201 220.891 66.6946 220.891 67.14C220.891 67.324 220.925 67.4983 220.993 67.6629C221.06 67.8178 221.177 67.9583 221.341 68.0841C221.515 68.2003 221.738 68.2972 222.009 68.3746C222.29 68.4424 222.643 68.4763 223.07 68.4763C223.408 68.4763 223.743 68.4279 224.072 68.3311C224.411 68.2245 224.735 68.089 225.045 67.9244C225.364 67.7501 225.669 67.5564 225.96 67.3434C226.25 67.1207 226.522 66.8931 226.773 66.6607C227.364 66.1281 227.921 65.523 228.444 64.8451L228.647 65.2228C228.269 66.1233 227.843 66.8544 227.369 67.416C226.904 67.9776 226.425 68.4134 225.931 68.7232C225.437 69.0331 224.938 69.2461 224.435 69.3623C223.941 69.4688 223.476 69.5221 223.04 69.5221C222.702 69.5221 222.358 69.4882 222.009 69.4204C221.67 69.3429 221.36 69.2122 221.08 69.0282C220.809 68.8443 220.586 68.5973 220.412 68.2875C220.247 67.9776 220.165 67.5855 220.165 67.111C220.165 66.6462 220.31 66.1862 220.6 65.7311C220.901 65.2664 221.298 64.8209 221.791 64.3949C222.295 63.9688 222.876 63.5718 223.534 63.2039C224.193 62.8359 224.885 62.5164 225.611 62.2452C226.347 61.9644 227.093 61.7465 227.848 61.5916C228.613 61.4367 229.344 61.3592 230.041 61.3592C230.429 61.3592 230.85 61.3883 231.305 61.4464C231.76 61.4948 232.254 61.5626 232.787 61.6497C233.319 61.7272 233.895 61.8143 234.515 61.9112C235.135 62.008 235.803 62.0951 236.519 62.1726C236.984 61.9112 237.454 61.6788 237.928 61.4754C238.412 61.2624 238.901 61.0881 239.395 60.9525L239.628 61.3302C239.347 61.4948 239.081 61.6594 238.829 61.824C238.587 61.9789 238.34 62.1436 238.088 62.3178C238.582 62.3469 239.1 62.3759 239.642 62.405C240.194 62.4244 240.77 62.434 241.371 62.434C241.748 62.434 242.121 62.4292 242.489 62.4195C242.867 62.4098 243.23 62.3953 243.578 62.3759L243.201 62.8988C242.232 63.0731 241.274 63.199 240.325 63.2765C239.376 63.3539 238.417 63.3927 237.449 63.3927H236.665C236.103 63.8478 235.575 64.3174 235.081 64.8016C234.597 65.276 234.137 65.7457 233.702 66.2105C233.266 66.6752 232.854 67.1255 232.467 67.5612C232.089 67.997 231.726 68.4085 231.378 68.7958C231.087 69.1251 230.748 69.5124 230.361 69.9578C229.974 70.4032 229.552 70.8874 229.097 71.4103C228.642 71.9235 228.168 72.4609 227.674 73.0225C227.18 73.5841 226.681 74.1506 226.178 74.7219C225.684 75.2835 225.19 75.8355 224.696 76.3777C224.202 76.9103 223.738 77.4041 223.302 77.8592C222.624 78.5661 221.932 79.2149 221.225 79.8055C220.518 80.3962 219.782 80.9094 219.017 81.3451C218.252 81.7712 217.458 82.1053 216.635 82.3473C215.812 82.5894 214.945 82.7105 214.035 82.7105C212.98 82.7105 212.162 82.5071 211.581 82.1004C211.009 81.6937 210.724 81.1612 210.724 80.5027C210.724 80.2606 210.762 80.0137 210.84 79.7619C210.917 79.5005 211.033 79.2681 211.188 79.0648C211.353 78.8517 211.552 78.6823 211.784 78.5564C212.026 78.4208 212.302 78.3531 212.612 78.3531C212.96 78.3531 213.232 78.445 213.425 78.629C213.619 78.813 213.716 79.0793 213.716 79.4279C213.716 79.7474 213.638 80.0089 213.483 80.2122C213.338 80.4059 213.178 80.5705 213.004 80.7061C212.83 80.8416 212.665 80.9675 212.51 81.0837C212.365 81.1902 212.292 81.3161 212.292 81.4613C212.292 81.6647 212.408 81.8196 212.641 81.9261C212.873 82.023 213.193 82.0714 213.599 82.0714C214.374 82.0714 215.096 81.9552 215.764 81.7228C216.432 81.4904 217.071 81.166 217.681 80.7496C218.291 80.3333 218.886 79.8346 219.467 79.2536C220.058 78.6726 220.658 78.0335 221.268 77.3363C222.208 76.2712 223.22 75.1286 224.304 73.9085C225.398 72.6884 226.517 71.4296 227.659 70.1321ZM238.901 76.3487C238.127 76.9006 237.391 77.4864 236.694 78.1061C236.006 78.7259 235.328 79.3698 234.66 80.0379C234.496 80.2316 234.316 80.4349 234.123 80.648C233.929 80.861 233.735 81.0692 233.542 81.2725C233.358 81.4759 233.174 81.6744 232.99 81.868C232.806 82.052 232.636 82.2069 232.482 82.3328C232.365 82.449 232.259 82.541 232.162 82.6088C232.065 82.6766 231.949 82.7105 231.813 82.7105C231.765 82.7105 231.712 82.7105 231.654 82.7105C231.605 82.7008 231.542 82.6814 231.465 82.6524C231.29 82.5943 231.14 82.5168 231.015 82.42C230.889 82.3134 230.826 82.1876 230.826 82.0423C230.826 81.9842 230.84 81.9164 230.869 81.839C230.898 81.7615 230.942 81.684 231 81.6066L236.868 74.8962C237.342 74.3539 237.851 73.7875 238.393 73.1968C238.945 72.6061 239.511 72.0009 240.092 71.3812C240.673 70.7615 241.259 70.1369 241.85 69.5075C242.45 68.8685 243.046 68.2342 243.636 67.6048C243.83 67.3918 244.087 67.1303 244.406 66.8205C244.726 66.5106 245.079 66.1862 245.467 65.8473C245.854 65.4987 246.261 65.155 246.687 64.8161C247.122 64.4772 247.548 64.1722 247.965 63.901C248.391 63.6299 248.793 63.412 249.17 63.2474C249.558 63.0731 249.901 62.986 250.202 62.986C250.599 62.986 250.875 63.0828 251.029 63.2765C251.194 63.4701 251.276 63.7219 251.276 64.0318C251.267 64.3416 251.126 64.7241 250.855 65.1792C250.594 65.6246 250.255 66.1039 249.838 66.6171C249.422 67.1207 248.957 67.6339 248.444 68.1568C247.931 68.6796 247.423 69.1686 246.919 69.6237C246.425 70.0789 245.965 70.4855 245.539 70.8438C245.113 71.2021 244.779 71.4684 244.537 71.6427C244.13 71.9428 243.719 72.2237 243.302 72.4851C242.896 72.7465 242.479 73.008 242.053 73.2694C241.637 73.5309 241.201 73.8068 240.746 74.0973C240.301 74.3878 239.841 74.7122 239.366 75.0705C239.25 75.2351 239.139 75.39 239.032 75.5353C238.926 75.6805 238.814 75.8258 238.698 75.971C238.843 75.8451 239.061 75.6757 239.352 75.4627C239.652 75.2496 239.996 75.0414 240.383 74.8381C240.78 74.6251 241.206 74.4411 241.661 74.2862C242.116 74.1312 242.571 74.0538 243.026 74.0538C243.646 74.0538 244.067 74.1458 244.29 74.3297C244.513 74.504 244.624 74.7509 244.624 75.0705C244.624 75.4384 244.518 75.8209 244.305 76.2179C244.092 76.6053 243.825 76.9926 243.506 77.3799C243.196 77.7672 242.857 78.1497 242.489 78.5274C242.131 78.8953 241.792 79.2487 241.472 79.5877C241.162 79.9266 240.901 80.2461 240.688 80.5463C240.485 80.8368 240.383 81.0934 240.383 81.3161C240.383 81.4516 240.407 81.563 240.456 81.6502C240.504 81.7276 240.562 81.7906 240.63 81.839C240.707 81.8777 240.79 81.9019 240.877 81.9116C240.974 81.9213 241.07 81.9261 241.167 81.9261C241.719 81.9261 242.266 81.8729 242.809 81.7664C243.351 81.6598 243.883 81.5194 244.406 81.3451C244.939 81.1708 245.462 80.9723 245.975 80.7496C246.488 80.5172 246.987 80.28 247.471 80.0379L247.616 80.3865C247.297 80.5995 246.856 80.8416 246.294 81.1127C245.733 81.3839 245.103 81.6405 244.406 81.8825C243.709 82.1246 242.963 82.328 242.169 82.4926C241.385 82.6572 240.606 82.7395 239.831 82.7395C239.376 82.7395 239.008 82.6281 238.727 82.4054C238.456 82.1827 238.32 81.8293 238.32 81.3451C238.32 81.1127 238.398 80.8416 238.553 80.5318C238.708 80.2219 238.906 79.9024 239.148 79.5731C239.4 79.2342 239.676 78.8905 239.976 78.5419C240.286 78.1933 240.586 77.8592 240.877 77.5397C241.177 77.2201 241.458 76.9248 241.719 76.6537C241.981 76.3729 242.194 76.1356 242.358 75.942C242.416 75.8548 242.499 75.7435 242.605 75.6079C242.712 75.4627 242.765 75.3319 242.765 75.2157C242.765 75.1383 242.731 75.0753 242.663 75.0269C242.605 74.9785 242.504 74.9543 242.358 74.9543C242.058 74.9543 241.768 74.9882 241.487 75.056C241.216 75.1141 240.94 75.2012 240.659 75.3174C240.388 75.4336 240.107 75.5789 239.816 75.7531C239.526 75.9274 239.221 76.1259 238.901 76.3487ZM246.106 67.5467C245.195 68.4569 244.271 69.4107 243.331 70.4081C242.402 71.3958 241.496 72.4173 240.615 73.4728C241.032 73.2016 241.453 72.9354 241.879 72.6739C242.305 72.4125 242.736 72.1365 243.172 71.846C243.607 71.5555 244.053 71.2408 244.508 70.9019C244.973 70.563 245.457 70.1708 245.96 69.7254C246.435 69.309 246.919 68.8588 247.413 68.3746C247.907 67.8905 248.352 67.4208 248.749 66.9657C249.156 66.5009 249.485 66.07 249.737 65.673C249.989 65.276 250.114 64.9516 250.114 64.6999C250.114 64.5643 250.047 64.4965 249.911 64.4965C249.717 64.4965 249.475 64.5934 249.185 64.787C248.894 64.971 248.575 65.2131 248.226 65.5133C247.887 65.8038 247.534 66.133 247.166 66.5009C246.798 66.8592 246.445 67.2078 246.106 67.5467ZM257.115 80.4156C255.876 80.9869 254.84 81.4323 254.007 81.7518C253.174 82.0714 252.463 82.3134 251.872 82.4781C251.291 82.633 250.787 82.7298 250.361 82.7686C249.935 82.8073 249.504 82.8266 249.069 82.8266C248.73 82.8266 248.405 82.7831 248.096 82.6959C247.795 82.6088 247.529 82.4732 247.297 82.2892C247.064 82.1053 246.88 81.868 246.745 81.5775C246.609 81.287 246.541 80.9384 246.541 80.5318C246.541 80.067 246.638 79.5877 246.832 79.0938C247.035 78.5903 247.311 78.1013 247.66 77.6268C248.008 77.1427 248.415 76.6876 248.88 76.2615C249.354 75.8355 249.868 75.4627 250.419 75.1431C250.971 74.8139 251.548 74.5573 252.148 74.3733C252.758 74.1796 253.368 74.0828 253.978 74.0828C254.191 74.0828 254.443 74.1022 254.733 74.1409C255.024 74.1796 255.3 74.2571 255.561 74.3733C255.823 74.4798 256.045 74.6299 256.229 74.8236C256.413 75.0172 256.505 75.2641 256.505 75.5643C256.505 75.8355 256.379 76.1163 256.128 76.4068C255.876 76.6972 255.537 76.9926 255.111 77.2928C254.695 77.5833 254.21 77.8737 253.658 78.1642C253.107 78.4547 252.535 78.7355 251.945 79.0067C251.364 79.2681 250.778 79.515 250.187 79.7474C249.596 79.9798 249.049 80.1832 248.546 80.3575C248.526 80.4349 248.517 80.5124 248.517 80.5899C248.517 80.6673 248.517 80.7448 248.517 80.8222C248.517 81.1902 248.638 81.4952 248.88 81.7373C249.122 81.9794 249.456 82.1004 249.882 82.1004C250.26 82.1004 250.632 82.0859 251 82.0568C251.368 82.0278 251.809 81.9503 252.322 81.8244C252.835 81.6889 253.46 81.4855 254.196 81.2144C254.932 80.9336 255.857 80.5511 256.97 80.067L257.115 80.4156ZM253.775 74.9833C253.523 74.9833 253.242 75.056 252.932 75.2012C252.622 75.3368 252.298 75.5256 251.959 75.7677C251.62 76.0001 251.281 76.276 250.942 76.5956C250.613 76.9151 250.298 77.2589 249.998 77.6268C249.708 77.9851 249.446 78.3579 249.214 78.7452C248.982 79.1229 248.807 79.4957 248.691 79.8636C249.117 79.7087 249.558 79.5392 250.013 79.3553C250.478 79.1713 250.928 78.9776 251.364 78.7743C251.809 78.5709 252.23 78.3579 252.627 78.1352C253.024 77.9028 253.373 77.6607 253.673 77.409C253.973 77.1572 254.21 76.9006 254.385 76.6391C254.559 76.368 254.646 76.0872 254.646 75.7967C254.646 75.5643 254.583 75.3707 254.457 75.2157C254.341 75.0608 254.114 74.9833 253.775 74.9833Z" fill="black" fill-opacity="0.8"/>
<path d="M29.9498 122.286V125.261H12.1019V122.286H9.1273V119.311H6.15265V116.337H3.178V107.413H0.203354V104.438H3.178V92.5396H6.15265V89.565H9.1273V86.5903H12.1019V83.6157H29.9498V86.5903H32.9245V83.6157H35.8991V98.4889H32.9245V92.5396H29.9498V89.565H26.9752V86.5903H15.0766V89.565H12.1019V92.5396H9.1273V113.362H12.1019V119.311H15.0766V122.286H29.9498ZM32.9245 122.286H29.9498V119.311H32.9245V116.337H35.8991V119.311H32.9245V122.286ZM62.6942 122.286V125.261H47.821V122.286H41.8717V113.362H38.897V110.388H41.8717V101.464H44.8463V98.4889H50.7956V95.5143H56.7449V98.4889H62.6942V101.464H65.6688V104.438H68.6435V116.337H65.6688V122.286H62.6942ZM47.821 122.286H59.7196V116.337H62.6942V110.388H59.7196V101.464H56.7449V98.4889H50.7956V101.464H47.821V104.438H44.8463V116.337H47.821V122.286ZM68.6435 125.261V122.286H74.5928V101.464H71.6181V98.4889H86.4914V95.5143H89.466V98.4889H95.4153V101.464H98.39V98.4889H104.339V95.5143H110.289V98.4889H113.263V122.286H119.213V125.261H104.339V122.286H107.314V101.464H98.39V122.286H101.365V125.261H86.4914V122.286H92.4407V104.438H89.466V101.464H80.5421V122.286H83.5167V125.261H68.6435ZM134.063 137.159V140.134H119.189V137.159H125.139V101.464H122.164V98.4889H137.037V95.5143H142.986V98.4889H148.936V104.438H151.91V116.337H148.936V122.286H142.986V116.337H145.961V110.388H142.986V101.464H128.113V104.438H131.088V122.286H142.986V125.261H131.088V137.159H134.063ZM172.721 122.286V125.261H160.823V122.286H157.848V101.464H154.873V98.4889H163.797V122.286H172.721V119.311H175.696V101.464H172.721V98.4889H181.645V122.286H184.62V125.261H175.696V122.286H172.721ZM199.47 101.464V122.286H205.419V125.261H193.521V98.4889H190.546V95.5143H193.521V92.5396H196.495V89.565H199.47V98.4889H196.495V101.464H199.47ZM205.419 98.4889V101.464H199.47V98.4889H205.419ZM235.142 110.388H214.32V113.362H217.295V119.311H220.269V122.286H229.193V125.261H214.32V122.286H211.345V116.337H208.371V107.413H211.345V101.464H214.32V98.4889H217.295V101.464H214.32V107.413H229.193V101.464H226.218V98.4889H220.269V95.5143H226.218V98.4889H229.193V101.464H232.168V107.413H235.142V110.388ZM232.168 122.286H229.193V119.311H232.168V122.286ZM253.002 98.4889V101.464H250.027V98.4889H253.002V95.5143H258.951V98.4889H261.926V104.438H255.977V98.4889H253.002ZM253.002 122.286V125.261H238.129V122.286H241.103V101.464H238.129V98.4889H247.053V101.464H250.027V104.438H247.053V122.286H253.002ZM282.76 122.286V125.261H279.785V113.362H282.76V116.337H285.735V122.286H300.608V119.311H303.583V113.362H300.608V110.388H297.633V107.413H288.709V104.438H282.76V101.464H279.785V86.5903H282.76V83.6157H297.633V86.5903H300.608V83.6157H303.583V86.5903H306.557V98.4889H303.583V95.5143H300.608V89.565H297.633V86.5903H285.735V89.565H282.76V92.5396H285.735V98.4889H291.684V101.464H300.608V104.438H303.583V107.413H306.557V122.286H303.583V125.261H285.735V122.286H282.76ZM321.419 95.5143H327.368V98.4889H321.419V101.464H318.444V119.311H321.419V122.286H330.343V125.261H318.444V122.286H315.47V119.311H312.495V104.438H315.47V98.4889H321.419V95.5143ZM330.343 107.413V98.4889H333.317V101.464H336.292V107.413H330.343ZM333.317 122.286H330.343V119.311H333.317V122.286ZM342.253 89.565V83.6157H348.202V89.565H342.253ZM354.152 122.286V125.261H339.278V122.286H342.253V101.464H339.278V98.4889H348.202V122.286H354.152ZM380.912 110.388H360.089V113.362H363.064V119.311H366.039V122.286H374.962V125.261H360.089V122.286H357.115V116.337H354.14V107.413H357.115V101.464H360.089V98.4889H363.064V101.464H360.089V107.413H374.962V101.464H371.988V98.4889H366.039V95.5143H371.988V98.4889H374.962V101.464H377.937V107.413H380.912V110.388ZM377.937 122.286H374.962V119.311H377.937V122.286ZM404.721 122.286V101.464H395.797V98.4889H398.771V95.5143H404.721V98.4889H410.67V122.286H416.619V125.261H401.746V122.286H404.721ZM389.847 104.438H392.822V122.286H395.797V125.261H383.898V122.286H386.873V101.464H383.898V98.4889H392.822V101.464H389.847V104.438ZM392.822 101.464H395.797V104.438H392.822V101.464ZM428.495 95.5143H434.444V98.4889H428.495V101.464H425.52V119.311H428.495V122.286H437.418V125.261H425.52V122.286H422.545V119.311H419.571V104.438H422.545V98.4889H428.495V95.5143ZM437.418 107.413V98.4889H440.393V101.464H443.368V107.413H437.418ZM440.393 122.286H437.418V119.311H440.393V122.286ZM470.151 110.388H449.329V113.362H452.303V119.311H455.278V122.286H464.202V125.261H449.329V122.286H446.354V116.337H443.379V107.413H446.354V101.464H449.329V98.4889H452.303V101.464H449.329V107.413H464.202V101.464H461.227V98.4889H455.278V95.5143H461.227V98.4889H464.202V101.464H467.177V107.413H470.151V110.388ZM467.177 122.286H464.202V119.311H467.177V122.286ZM67.1387 158.438V161.413H70.1134V176.286H76.0627V179.261H58.2148V176.286H64.1641V140.59H58.2148V137.616H76.0627V140.59H70.1134V155.464H90.9359V140.59H84.9866V137.616H102.835V140.59H96.8852V176.286H102.835V179.261H84.9866V176.286H90.9359V158.438H67.1387ZM126.632 176.286V179.261H111.758V176.286H105.809V167.362H102.835V164.388H105.809V155.464H108.784V152.489H114.733V149.514H120.682V152.489H126.632V155.464H129.606V158.438H132.581V170.337H129.606V176.286H126.632ZM111.758 176.286H123.657V170.337H126.632V164.388H123.657V155.464H120.682V152.489H114.733V155.464H111.758V158.438H108.784V170.337H111.758V176.286ZM156.378 176.286V155.464H147.454V152.489H150.429V149.514H156.378V152.489H162.327V176.286H168.277V179.261H153.404V176.286H156.378ZM141.505 158.438H144.48V176.286H147.454V179.261H135.556V176.286H138.53V155.464H135.556V152.489H144.48V155.464H141.505V158.438ZM144.48 155.464H147.454V158.438H144.48V155.464ZM192.051 176.286V179.261H177.177V176.286H171.228V167.362H168.254V164.388H171.228V155.464H174.203V152.489H180.152V149.514H186.101V152.489H192.051V155.464H195.025V158.438H198V170.337H195.025V176.286H192.051ZM177.177 176.286H189.076V170.337H192.051V164.388H189.076V155.464H186.101V152.489H180.152V155.464H177.177V158.438H174.203V170.337H177.177V176.286ZM215.848 152.489V155.464H212.873V152.489H215.848V149.514H221.797V152.489H224.772V158.438H218.823V152.489H215.848ZM215.848 176.286V179.261H200.975V176.286H203.949V155.464H200.975V152.489H209.899V155.464H212.873V158.438H209.899V176.286H215.848ZM245.606 176.286V179.261H242.631V167.362H245.606V170.337H248.581V176.286H263.454V173.311H266.429V167.362H263.454V164.388H260.479V161.413H251.555V158.438H245.606V155.464H242.631V140.59H245.606V137.616H260.479V140.59H263.454V137.616H266.429V140.59H269.403V152.489H266.429V149.514H263.454V143.565H260.479V140.59H248.581V143.565H245.606V146.54H248.581V152.489H254.53V155.464H263.454V158.438H266.429V161.413H269.403V176.286H266.429V179.261H248.581V176.286H245.606ZM296.163 176.286V179.261H281.29V176.286H275.341V167.362H272.366V164.388H275.341V155.464H278.316V152.489H284.265V149.514H290.214V152.489H296.163V155.464H299.138V158.438H302.113V170.337H299.138V176.286H296.163ZM281.29 176.286H293.189V170.337H296.163V164.388H293.189V155.464H290.214V152.489H284.265V155.464H281.29V158.438H278.316V170.337H281.29V176.286ZM314.011 149.514H319.961V152.489H314.011V155.464H311.037V173.311H314.011V176.286H322.935V179.261H311.037V176.286H308.062V173.311H305.087V158.438H308.062V152.489H314.011V149.514ZM322.935 161.413V152.489H325.91V155.464H328.885V161.413H322.935ZM325.91 176.286H322.935V173.311H325.91V176.286ZM334.845 143.565V137.616H340.795V143.565H334.845ZM346.744 176.286V179.261H331.871V176.286H334.845V155.464H331.871V152.489H340.795V176.286H346.744ZM373.504 164.388H352.682V167.362H355.656V173.311H358.631V176.286H367.555V179.261H352.682V176.286H349.707V170.337H346.732V161.413H349.707V155.464H352.682V152.489H355.656V155.464H352.682V161.413H367.555V155.464H364.58V152.489H358.631V149.514H364.58V152.489H367.555V155.464H370.53V161.413H373.504V164.388ZM370.53 176.286H367.555V173.311H370.53V176.286ZM385.414 155.464V176.286H391.364V179.261H379.465V152.489H376.49V149.514H379.465V146.54H382.44V143.565H385.414V152.489H382.44V155.464H385.414ZM391.364 152.489V155.464H385.414V152.489H391.364ZM415.138 173.311H412.163V167.362H415.138V161.413H418.112V152.489H424.062V155.464H421.087V161.413H418.112V167.362H415.138V173.311ZM409.188 185.21H406.214V179.261H409.188V176.286H406.214V170.337H403.239V164.388H400.264V155.464H397.29V152.489H406.214V161.413H409.188V173.311H412.163V179.261H409.188V185.21ZM403.239 191.159V194.134H397.29V191.159H394.315V185.21H400.264V191.159H403.239ZM406.214 188.185V191.159H403.239V188.185H406.214Z" fill="black" fill-opacity="0.8"/>
</svg>
